<svg width="48.000000" height="48.000000" viewBox="0 0 48 48" fill="none" xmlns="http://www.w3.org/2000/svg" xmlns:xlink="http://www.w3.org/1999/xlink">
	<desc>
			Created with Pixso.
	</desc>
	<defs>
		<clipPath id="clip73_6194">
			<rect id="icon/32/left" width="48.000000" height="48.000000" fill="white" fill-opacity="0"/>
		</clipPath>
	</defs>
	<rect id="icon/32/left" width="48.000000" height="48.000000" fill="#FFFFFF" fill-opacity="0"/>
	<g clip-path="url(#clip73_6194)">
		<path id="Vector" d="M6.43 25.06L19.93 38.56C20.22 38.84 20.6 39 21 39C21.39 39 21.78 38.84 22.06 38.56C22.34 38.27 22.5 37.89 22.5 37.5C22.5 37.1 22.34 36.72 22.06 36.43L11.12 25.5L40.5 25.5C40.89 25.5 41.28 25.34 41.56 25.06C41.84 24.77 42 24.39 42 24C42 23.6 41.84 23.22 41.56 22.93C41.28 22.65 40.89 22.5 40.5 22.5L11.12 22.5L22.06 11.56C22.34 11.27 22.5 10.89 22.5 10.5C22.5 10.1 22.34 9.72 22.06 9.43C21.78 9.15 21.39 8.99 21 8.99C20.6 8.99 20.22 9.15 19.93 9.43L6.43 22.93C6.3 23.07 6.18 23.24 6.11 23.42C6.03 23.6 6 23.8 6 24C6 24.19 6.03 24.39 6.11 24.57C6.18 24.75 6.3 24.92 6.43 25.06Z" fill="#495057" fill-opacity="1.000000" fill-rule="nonzero"/>
	</g>
</svg>
