<svg width="32" height="32" viewBox="0 0 32 32" fill="none" xmlns="http://www.w3.org/2000/svg">
<path fill-rule="evenodd" clip-rule="evenodd" d="M6.32451 6.32451C6.53257 6.11672 6.8146 6 7.10865 6C7.4027 6 7.68473 6.11672 7.89279 6.32451L25.6468 24.0786C25.7559 24.1801 25.8433 24.3026 25.9039 24.4388C25.9646 24.5749 25.9972 24.7218 25.9998 24.8708C26.0025 25.0198 25.975 25.1678 25.9192 25.306C25.8634 25.4441 25.7804 25.5696 25.675 25.675C25.5696 25.7804 25.4441 25.8634 25.306 25.9192C25.1678 25.975 25.0198 26.0025 24.8708 25.9998C24.7218 25.9972 24.5749 25.9646 24.4388 25.9039C24.3026 25.8433 24.1801 25.7559 24.0786 25.6468L6.32451 7.89279C6.11672 7.68473 6 7.4027 6 7.10865C6 6.8146 6.11672 6.53257 6.32451 6.32451Z" fill="white"/>
<path fill-rule="evenodd" clip-rule="evenodd" d="M25.6465 6.32451C25.8543 6.53257 25.971 6.8146 25.971 7.10865C25.971 7.4027 25.8543 7.68473 25.6465 7.89279L7.89245 25.6468C7.68211 25.8428 7.40389 25.9495 7.11642 25.9445C6.82895 25.9394 6.55467 25.8229 6.35137 25.6196C6.14807 25.4163 6.03161 25.1421 6.02654 24.8546C6.02147 24.5671 6.12817 24.2889 6.32418 24.0786L24.0782 6.32451C24.2863 6.11672 24.5683 6 24.8624 6C25.1564 6 25.4384 6.11672 25.6465 6.32451Z" fill="white"/>
</svg>
