<svg width="24.000000" height="24.000000" viewBox="0 0 24 24" fill="none" xmlns="http://www.w3.org/2000/svg" xmlns:xlink="http://www.w3.org/1999/xlink">
	<desc>
			Created with Pixso.
	</desc>
	<defs>
		<clipPath id="clip73_445">
			<rect id="icon/24/sort" width="24.000000" height="24.000000" fill="white" fill-opacity="0"/>
		</clipPath>
	</defs>
	<rect id="icon/24/sort" width="24.000000" height="24.000000" fill="#FFFFFF" fill-opacity="0"/>
	<g clip-path="url(#clip73_445)">
		<path id="Vector" d="M18.77 16.24L18.77 5.8C18.77 5.59 18.68 5.38 18.53 5.23C18.38 5.08 18.17 5 17.96 5C17.74 5 17.54 5.08 17.39 5.23C17.23 5.38 17.15 5.59 17.15 5.8L17.15 16.24L14.76 13.85C14.68 13.77 14.6 13.71 14.5 13.66C14.4 13.62 14.29 13.59 14.18 13.59C14.07 13.59 13.97 13.61 13.87 13.65C13.76 13.69 13.67 13.75 13.6 13.83C13.52 13.9 13.46 14 13.42 14.1C13.38 14.2 13.36 14.3 13.36 14.41C13.36 14.52 13.39 14.63 13.43 14.73C13.47 14.83 13.54 14.92 13.62 14.99L17.39 18.76C17.54 18.91 17.74 19 17.96 19C18.17 19 18.38 18.91 18.53 18.76L22.3 14.99C22.38 14.92 22.44 14.83 22.48 14.73C22.53 14.63 22.55 14.52 22.55 14.41C22.56 14.3 22.54 14.2 22.5 14.1C22.46 14 22.39 13.9 22.32 13.83C22.24 13.75 22.15 13.69 22.05 13.65C21.95 13.61 21.84 13.59 21.73 13.59C21.62 13.59 21.52 13.62 21.42 13.66C21.32 13.71 21.23 13.77 21.16 13.85L18.77 16.24ZM1 6.34C1 6.13 1.08 5.92 1.23 5.77C1.38 5.62 1.59 5.53 1.8 5.53L12.03 5.53C12.25 5.53 12.45 5.62 12.61 5.77C12.76 5.92 12.84 6.13 12.84 6.34C12.84 6.56 12.76 6.76 12.61 6.91C12.45 7.06 12.25 7.15 12.03 7.15L1.8 7.15C1.59 7.15 1.38 7.06 1.23 6.91C1.08 6.76 1 6.56 1 6.34ZM1 11.73C1 11.51 1.08 11.31 1.23 11.16C1.38 11 1.59 10.92 1.8 10.92L7.73 10.92C7.94 10.92 8.15 11 8.3 11.16C8.45 11.31 8.53 11.51 8.53 11.73C8.53 11.94 8.45 12.15 8.3 12.3C8.15 12.45 7.94 12.53 7.73 12.53L1.8 12.53C1.59 12.53 1.38 12.45 1.23 12.3C1.08 12.15 1 11.94 1 11.73ZM1 17.11C1 16.9 1.08 16.69 1.23 16.54C1.38 16.39 1.59 16.3 1.8 16.3L5.57 16.3C5.79 16.3 5.99 16.39 6.14 16.54C6.29 16.69 6.38 16.9 6.38 17.11C6.38 17.33 6.29 17.53 6.14 17.68C5.99 17.83 5.79 17.92 5.57 17.92L1.8 17.92C1.59 17.92 1.38 17.83 1.23 17.68C1.08 17.53 1 17.33 1 17.11Z" fill="#CED4DA" fill-opacity="1.000000" fill-rule="nonzero"/>
	</g>
</svg>
