<svg width="24.000000" height="24.000000" viewBox="0 0 24 24" fill="none" xmlns="http://www.w3.org/2000/svg" xmlns:xlink="http://www.w3.org/1999/xlink">
	<desc>
			Created with Pixso.
	</desc>
	<defs>
		<clipPath id="clip69_995">
			<rect id="icon/24/up" width="24.000000" height="24.000000" fill="white" fill-opacity="0"/>
		</clipPath>
	</defs>
	<rect id="icon/24/up" width="24.000000" height="24.000000" fill="#FFFFFF" fill-opacity="0"/>
	<g clip-path="url(#clip69_995)">
		<path id="Vector" d="M20.87 17.7L12.6 6.3C12.3 5.89 11.69 5.89 11.39 6.3L3.12 17.7C3.1 17.73 3.09 17.76 3.09 17.79C3.09 17.83 3.09 17.86 3.11 17.89C3.12 17.92 3.15 17.95 3.18 17.97C3.21 17.99 3.24 18 3.28 18L5.03 18C5.15 18 5.27 17.94 5.34 17.84L12 8.66L18.65 17.84C18.72 17.94 18.84 18 18.96 18L20.71 18C20.87 18 20.96 17.82 20.87 17.7Z" fill="#868E96" fill-opacity="1.000000" fill-rule="nonzero"/>
	</g>
</svg>
