<svg width="12" height="12" viewBox="0 0 20 20" fill="none" xmlns="http://www.w3.org/2000/svg">
<path d="M9.99984 1.66663C5.39984 1.66663 1.6665 5.39996 1.6665 9.99996C1.6665 14.6 5.39984 18.3333 9.99984 18.3333C14.5998 18.3333 18.3332 14.6 18.3332 9.99996C18.3332 5.39996 14.5998 1.66663 9.99984 1.66663ZM9.99984 10.8333C9.5415 10.8333 9.1665 10.4583 9.1665 9.99996V6.66663C9.1665 6.20829 9.5415 5.83329 9.99984 5.83329C10.4582 5.83329 10.8332 6.20829 10.8332 6.66663V9.99996C10.8332 10.4583 10.4582 10.8333 9.99984 10.8333ZM10.8332 14.1666H9.1665V12.5H10.8332V14.1666Z" fill="#DD2525"/>
</svg>
