<svg width="32" height="32" viewBox="0 0 32 32" fill="none" xmlns="http://www.w3.org/2000/svg">
<mask id="path-1-inside-1_122_4423" fill="white">
<path d="M16.0083 28C17.0788 26.5951 29.4227 8.39311 24.4054 4.71761C19.387 1.04211 16.0213 12.6817 16.0213 12.6817H15.9813C15.9813 12.6817 12.6156 1.04211 7.5972 4.71761C2.57882 8.39311 14.8915 26.5317 15.9619 27.9376"/>
</mask>
<path d="M24.4054 4.71761L25.5873 3.10421L25.5872 3.10409L24.4054 4.71761ZM16.0213 12.6817V14.6817H17.5249L17.9426 13.2373L16.0213 12.6817ZM15.9813 12.6817L14.06 13.2373L14.4777 14.6817H15.9813V12.6817ZM17.5992 29.2121C18.206 28.4156 21.6271 23.408 24.2786 18.1047C25.5992 15.4634 26.7969 12.6166 27.3184 10.117C27.5789 8.8686 27.6986 7.58036 27.5024 6.39022C27.3001 5.16381 26.7401 3.94869 25.5873 3.10421L23.2235 6.33101C23.325 6.4054 23.4768 6.56311 23.5557 7.04112C23.6405 7.55541 23.6107 8.30319 23.4027 9.30007C22.9874 11.2909 21.973 13.7716 20.7009 16.3159C18.1672 21.3836 14.881 26.1795 14.4175 26.7879L17.5992 29.2121ZM25.5872 3.10409C24.7081 2.46024 23.7448 2.06786 22.7212 2.00796C21.6982 1.9481 20.7774 2.22977 19.9979 2.66817C18.5146 3.50237 17.4031 4.97989 16.616 6.29315C15.798 7.65791 15.1724 9.11745 14.7567 10.2083C14.5466 10.7597 14.385 11.2305 14.275 11.5666C14.2199 11.7348 14.1775 11.87 14.1483 11.9653C14.1336 12.013 14.1223 12.0508 14.1142 12.0779C14.1102 12.0914 14.107 12.1023 14.1046 12.1104C14.1034 12.1144 14.1024 12.1178 14.1017 12.1204C14.1013 12.1217 14.101 12.1228 14.1007 12.1238C14.1005 12.1243 14.1004 12.1249 14.1003 12.1251C14.1001 12.1257 14.1 12.1262 16.0213 12.6817C17.9426 13.2373 17.9425 13.2377 17.9424 13.2381C17.9423 13.2381 17.9422 13.2384 17.9422 13.2386C17.9421 13.2388 17.9421 13.2389 17.9421 13.2388C17.9422 13.2386 17.9424 13.2378 17.9429 13.2362C17.9438 13.2331 17.9455 13.2273 17.948 13.219C17.953 13.2022 17.9611 13.1751 17.9724 13.1384C17.9949 13.0651 18.0297 12.9538 18.0765 12.811C18.1701 12.5248 18.3107 12.115 18.4945 11.6327C18.8667 10.6559 19.3962 9.43525 20.0469 8.34955C20.7285 7.21235 21.3995 6.46912 21.9587 6.15463C22.2004 6.01868 22.3659 5.99401 22.4875 6.00113C22.6084 6.00821 22.8482 6.0561 23.2237 6.33113L25.5872 3.10409ZM16.0213 10.6817H15.9813V14.6817H16.0213V10.6817ZM15.9813 12.6817C17.9026 12.1262 17.9025 12.1257 17.9023 12.1251C17.9022 12.1249 17.9021 12.1243 17.9019 12.1238C17.9017 12.1228 17.9013 12.1217 17.9009 12.1204C17.9002 12.1178 17.8992 12.1144 17.898 12.1104C17.8956 12.1023 17.8924 12.0914 17.8884 12.0779C17.8804 12.0508 17.869 12.013 17.8544 11.9653C17.8251 11.87 17.7827 11.7348 17.7277 11.5666C17.6177 11.2305 17.456 10.7597 17.2459 10.2083C16.8302 9.11745 16.2046 7.65791 15.3866 6.29315C14.5995 4.97989 13.488 3.50237 12.0047 2.66817C11.2252 2.22977 10.3044 1.9481 9.28145 2.00796C8.25777 2.06786 7.29453 2.46024 6.41544 3.10409L8.77895 6.33113C9.15446 6.0561 9.39417 6.00821 9.5151 6.00113C9.63674 5.99401 9.80224 6.01868 10.044 6.15463C10.6032 6.46912 11.2741 7.21235 11.9557 8.34955C12.6064 9.43525 13.1359 10.6559 13.5081 11.6327C13.6919 12.115 13.8325 12.5248 13.9261 12.811C13.9729 12.9538 14.0077 13.0651 14.0302 13.1384C14.0415 13.1751 14.0496 13.2022 14.0546 13.219C14.0571 13.2273 14.0588 13.2331 14.0597 13.2362C14.0602 13.2378 14.0604 13.2386 14.0605 13.2388C14.0605 13.2389 14.0605 13.2388 14.0604 13.2386C14.0604 13.2384 14.0603 13.2381 14.0603 13.2381C14.0602 13.2377 14.06 13.2373 15.9813 12.6817ZM6.41544 3.10409C5.26426 3.94722 4.70288 5.15945 4.49901 6.38468C4.30122 7.57341 4.41945 8.8596 4.67835 10.1055C5.19671 12.6001 6.3907 15.4395 7.70735 18.0731C10.3513 23.3615 13.7646 28.3533 14.3706 29.1492L17.5532 26.7261C17.0887 26.1161 13.8105 21.3355 11.2851 16.2844C10.0171 13.7481 9.00699 11.2759 8.59469 9.29173C8.38827 8.29833 8.35954 7.55345 8.44477 7.04121C8.52392 6.56549 8.67554 6.40687 8.77895 6.33113L6.41544 3.10409Z" fill="#CED4DA" mask="url(#path-1-inside-1_122_4423)"/>
</svg>
