<svg xmlns="http://www.w3.org/2000/svg" height="32" viewBox="0 -960 960 960" width="32" fill="white"><path d="M479.615-164.001V-216h252.076q4.616 0 8.463-3.846 3.846-3.847 3.846-8.463v-503.382q0-4.616-3.846-8.463-3.847-3.846-8.463-3.846H479.615v-51.999h252.076q27.008 0 45.658 18.65 18.65 18.65 18.65 45.658v503.382q0 27.008-18.65 45.658-18.65 18.65-45.658 18.65H479.615Zm-46.229-177.232-37.537-36.383 76.384-76.385H164.001v-51.998h308.232l-76.384-76.385 37.537-36.383L572.154-480 433.386-341.233Z"/></svg>