<svg width="48" height="56" viewBox="0 0 48 56" fill="none" xmlns="http://www.w3.org/2000/svg">
<path d="M13.5285 14.6504C13.7316 14.8462 13.9855 14.9342 14.2496 14.9342C14.5137 14.9342 14.7777 14.8364 14.9707 14.6504C15.3668 14.2687 15.3668 13.6424 14.9707 13.2607L9.1916 7.69198L14.9707 2.12326C15.3668 1.74157 15.3668 1.11522 14.9707 0.733531C14.5746 0.351844 13.9246 0.351844 13.5285 0.733531L7.74937 6.30225L1.97027 0.733531C1.57416 0.351844 0.924144 0.351844 0.528037 0.733531C0.13193 1.11522 0.13193 1.74157 0.528037 2.12326L6.30713 7.69198L0.528037 13.2607C0.13193 13.6424 0.13193 14.2687 0.528037 14.6504C0.731169 14.8462 0.985082 14.9342 1.24915 14.9342C1.51322 14.9342 1.77729 14.8364 1.97027 14.6504L7.74937 9.08171L13.5285 14.6504Z" fill="white"/>
<path d="M45.5317 3.19995C44.2723 1.51661 42.241 0.38133 39.9557 0.0779379C37.8025 -0.205881 35.7204 0.29325 34.2477 1.4481C31.7391 3.40547 31.1906 6.69385 32.9782 9.09163C34.0344 10.5107 35.7915 11.4503 37.5588 11.5481C38.9705 11.6264 40.23 11.1567 41.1136 10.2171C41.9871 9.28736 42.7793 7.26149 41.723 5.83261C41.1948 5.12795 40.4229 4.65818 39.5292 4.52117C38.6455 4.38415 37.7518 4.57989 37.0205 5.08881C36.5634 5.40199 36.4619 6.01856 36.7869 6.45896C37.1119 6.89937 37.7518 7.00703 38.2088 6.68406C38.4932 6.48832 38.8385 6.41003 39.194 6.45896C39.5393 6.51769 39.844 6.69385 40.0573 6.97767C40.4229 7.46701 39.9557 8.50442 39.6003 8.8861C39.0112 9.51246 38.2291 9.61033 37.6705 9.58097C36.5228 9.51246 35.3345 8.87632 34.6337 7.93678C33.486 6.39046 33.8719 4.25692 35.5275 2.96506C36.5634 2.15275 38.0768 1.81021 39.6714 2.01574C41.4081 2.24084 42.9316 3.0825 43.866 4.33522C44.7903 5.57815 45.1559 7.26149 44.8715 8.94483C44.6176 10.4226 43.866 11.7047 42.8707 12.3898C40.7378 13.848 38.9502 14.0536 36.9189 13.9263C36.34 13.897 35.8626 14.2982 35.8322 14.8463C35.7915 15.3846 36.2181 15.8543 36.7869 15.8935C37.1322 15.9131 37.4978 15.9326 37.8736 15.9326C39.6714 15.9326 41.7535 15.5803 44.059 14.0046C45.5114 13.0162 46.5372 11.2937 46.8927 9.27758C47.2786 7.07554 46.781 4.86371 45.5317 3.19016V3.19995Z" fill="#FFFA9B"/>
<path d="M40.027 21.3156C30.3478 15.4044 23.8475 34.1168 23.8475 34.1168H23.7663C23.7663 34.1168 17.2762 15.4044 7.58685 21.3156C-2.09237 27.2269 23.939 56.0002 23.939 56.0002C26.0007 53.7395 49.696 27.2171 40.0168 21.3156H40.027Z" fill="#FF4E36"/>
<path d="M46.8726 45.6844C46.1515 45.6844 45.0952 44.8623 44.0694 44.0598C42.6678 42.9637 41.0732 41.7207 39.2552 41.7207C37.6708 41.7207 36.2691 42.8169 34.9183 43.8738C33.7808 44.7644 32.5925 45.6844 31.6377 45.6844C30.8354 45.6844 29.7283 44.8232 28.6619 43.9913C27.2298 42.8756 25.7469 41.7207 24.0102 41.7207C22.3851 41.7207 20.953 42.8364 19.5616 43.913C18.4443 44.784 17.2865 45.6844 16.3826 45.6844C15.5396 45.6844 14.4223 44.8134 13.3356 43.9619C11.9238 42.856 10.4511 41.7109 8.75497 41.7109C7.05882 41.7109 5.64705 42.8364 4.2556 43.9326C3.15869 44.7938 2.011 45.6844 1.13753 45.6844C0.507824 45.6844 0 46.1737 0 46.7805C0 47.3873 0.507824 47.8767 1.13753 47.8767C2.82352 47.8767 4.27592 46.7414 5.68768 45.6355C6.77444 44.784 7.90182 43.9032 8.75497 43.9032C9.60812 43.9032 10.7964 44.7938 11.9035 45.6648C13.295 46.7512 14.7372 47.8669 16.3724 47.8669C18.0076 47.8669 19.5616 46.7218 20.9835 45.6061C22.0601 44.7644 23.1672 43.9032 24 43.9032C24.9242 43.9032 26.0923 44.8134 27.2196 45.6942C28.5908 46.761 30.0127 47.8767 31.6174 47.8767C33.3847 47.8767 34.8777 46.712 36.3301 45.5767C37.3762 44.7546 38.463 43.913 39.245 43.913C40.2607 43.913 41.4693 44.8525 42.6272 45.7627C43.9577 46.8001 45.339 47.8767 46.8625 47.8767C47.4922 47.8767 48 47.3873 48 46.7805C48 46.1737 47.4922 45.6844 46.8625 45.6844H46.8726Z" fill="white"/>
</svg>
